<?xml version="1.0" encoding="utf-8"?>
<svg viewBox="0 0 500 500" xmlns="http://www.w3.org/2000/svg" xmlns:bx="https://boxy-svg.com">
  <defs>
    <bx:grid x="0" y="0" width="13.667" height="14.084"/>
  </defs>
  <path d="M 37.5 291.207 L 39.869 289.665 L 40.822 286.424 C 44.921 280.147 49.032 274.127 53.156 268.366 C 57.281 262.604 61.571 256.687 66.027 250.617 C 67.427 248.661 68.852 246.707 70.304 244.752 C 71.755 242.797 73.193 240.791 74.619 238.733 C 74.619 238.321 74.676 237.883 74.79 237.421 C 74.905 236.958 75.14 236.418 75.496 235.8 C 77.431 233.743 79.036 231.891 80.309 230.244 C 81.581 228.598 82.842 226.9 84.089 225.151 C 85.515 223.093 87.017 221.036 88.596 218.977 C 90.175 216.92 92.021 214.914 94.134 212.958 L 95.586 211.415 L 97.23 211.57 C 97.688 211.363 98.166 211.183 98.663 211.029 C 99.16 210.875 99.764 210.798 100.478 210.798 L 103.116 211.261 C 106.861 209.717 110.395 207.479 113.719 204.547 C 117.042 201.615 120.537 198.091 124.204 193.975 L 126.687 191.351 L 128.752 192.894 C 129.185 193.202 129.925 193.513 130.97 193.821 C 132.014 194.13 133.098 194.489 134.219 194.901 C 136.233 195.416 138.177 196.007 140.05 196.676 C 141.923 197.344 143.281 198.245 144.122 199.377 L 144.544 200.766 C 144.468 201.897 144.393 202.926 144.316 203.853 C 144.241 204.778 144.19 205.704 144.166 206.631 C 144.039 208.791 143.869 210.927 143.653 213.036 C 143.439 215.145 143.064 217.485 142.531 220.058 C 142.532 222.116 142.502 224.199 142.439 226.309 C 142.377 228.418 142.296 230.501 142.195 232.56 C 141.968 235.543 141.823 238.399 141.761 241.125 C 141.699 243.852 141.873 246.45 142.282 248.92 C 143.302 248.92 143.9 248.971 144.079 249.074 C 145.429 248.559 146.932 248.25 148.588 248.147 L 150.615 247.993 L 150.768 249.845 C 150.896 250.154 151.075 250.463 151.304 250.771 C 151.534 251.08 151.815 251.388 152.145 251.697 C 153.751 251.8 154.866 252.135 155.492 252.701 C 156.116 253.267 156.62 253.807 157.002 254.322 C 157.155 254.527 157.353 254.758 157.595 255.015 C 157.838 255.274 158.048 255.453 158.226 255.556 L 160.712 256.636 L 158.458 259.569 C 156.803 261.729 154.575 263.838 151.774 265.897 C 148.972 267.955 145.978 269.651 142.794 270.99 C 142.82 271.71 142.783 272.379 142.681 272.996 C 142.579 273.613 142.529 274.334 142.529 275.157 C 142.428 277.215 142.233 279.35 141.941 281.562 C 141.65 283.774 141.058 286.063 140.168 288.43 C 138.489 291.104 136.699 293.498 134.803 295.607 C 132.906 297.717 130.804 299.62 128.499 301.317 C 126.195 303.015 123.737 304.404 121.126 305.484 C 118.514 306.565 115.921 307.156 113.348 307.259 C 111.997 306.95 111.041 306.591 110.48 306.179 C 109.919 305.767 109.435 305.356 109.027 304.944 C 108.364 304.327 107.803 303.915 107.344 303.709 L 105.585 302.783 L 106.769 300.469 C 107.277 299.644 107.43 298.924 107.226 298.307 C 107.021 297.69 106.485 296.867 105.618 295.838 C 105.288 295.529 105.013 295.196 104.796 294.835 C 104.579 294.475 104.318 294.089 104.012 293.677 L 101.83 290.128 L 107.22 288.739 C 110.481 287.915 112.78 286.86 114.116 285.575 C 115.454 284.288 116.427 281.999 117.036 278.707 C 114.615 278.192 112.545 278.115 110.824 278.475 C 109.105 278.835 107.379 279.221 105.645 279.633 C 103.149 280.25 100.722 280.791 98.365 281.254 C 96.009 281.716 93.506 281.947 90.855 281.947 C 89.122 281.947 87.325 281.793 85.465 281.484 L 83.822 281.33 L 83.782 279.633 C 83.833 279.427 83.762 279.195 83.571 278.938 C 83.38 278.681 83.207 278.449 83.054 278.243 C 82.698 277.626 82.29 276.803 81.829 275.774 C 81.37 274.745 81.535 273.458 82.324 271.916 C 81.89 270.784 81.775 269.6 81.977 268.366 C 81.367 269.189 80.838 269.986 80.394 270.758 C 79.947 271.53 79.533 272.276 79.153 272.996 L 78.046 275.003 L 75.98 275.311 C 75.727 275.517 75.472 275.826 75.217 276.237 C 74.963 276.649 74.861 276.957 74.913 277.163 L 75.104 278.861 L 73.232 280.25 C 72.952 280.559 72.634 280.816 72.277 281.022 C 71.921 281.227 71.615 281.433 71.361 281.639 C 70.877 282.77 70.33 283.851 69.719 284.88 C 69.108 285.908 68.471 286.938 67.81 287.967 C 66.893 289.613 66.016 291.207 65.175 292.752 C 64.335 294.295 63.725 295.838 63.343 297.382 L 62.237 299.388 C 61.524 300.211 60.734 300.828 59.868 301.24 C 59.002 301.651 58.174 302.012 57.383 302.32 C 56.263 302.732 55.448 303.143 54.939 303.554 L 53.985 305.561 L 51.614 305.87 C 50.213 306.179 49.22 306.385 48.633 306.488 C 48.048 306.591 47.397 306.642 46.684 306.642 L 44.734 306.488 C 43.816 305.253 43.058 304.301 42.458 303.633 C 41.859 302.964 41.113 302.372 40.221 301.857 L 39.608 300.623 C 39.404 299.8 39.333 299.054 39.397 298.385 C 39.46 297.717 39.479 297.021 39.452 296.301 C 39.579 294.963 39.503 294.037 39.222 293.523 Z M 96.186 251.08 C 94.25 253.138 92.34 255.298 90.456 257.563 C 91.195 257.46 91.896 257.408 92.559 257.408 C 93.221 257.408 93.922 257.357 94.661 257.253 C 98.278 257.048 101.655 256.79 104.789 256.481 C 107.923 256.173 111.363 255.659 115.109 254.939 C 115.233 251.132 115.301 247.248 115.312 243.286 C 115.322 239.325 115.262 235.337 115.132 231.324 L 113.986 232.868 C 110.751 235.645 107.568 238.63 104.437 241.82 C 101.304 245.01 98.618 248.044 96.377 250.926 Z M 211.312 306.179 C 209.656 306.282 207.656 306.23 205.31 306.025 C 202.966 305.819 200.66 306.179 198.393 307.105 C 193.042 306.899 187.702 306.23 182.376 305.099 C 177.05 303.966 172.245 302.578 167.962 300.931 C 167.223 299.8 166.464 298.745 165.686 297.768 C 164.908 296.789 163.704 296.096 162.073 295.684 C 160.109 293.728 158.712 291.337 157.882 288.507 C 157.052 285.678 156.572 282.667 156.443 279.478 C 156.313 276.289 156.509 273.022 157.029 269.678 C 157.549 266.334 158.241 263.118 159.105 260.032 C 161.779 255.401 164.929 251.415 168.558 248.071 C 172.187 244.727 175.886 241.408 179.656 238.115 C 181.133 237.498 182.286 236.855 183.114 236.186 C 183.941 235.518 184.807 234.901 185.712 234.335 C 186.616 233.768 187.52 233.202 188.424 232.636 C 189.329 232.07 190.189 231.376 191.003 230.553 C 193.27 230.039 195.315 229.292 197.136 228.315 C 198.958 227.337 200.766 226.309 202.562 225.228 C 204.358 224.147 206.186 223.144 208.046 222.219 C 209.906 221.292 211.968 220.572 214.236 220.058 C 215.28 219.132 216.434 218.386 217.694 217.82 C 218.955 217.255 220.242 216.688 221.554 216.122 C 222.866 215.556 224.133 214.965 225.356 214.347 C 226.579 213.73 227.622 212.907 228.489 211.879 C 228.795 212.701 229.439 212.984 230.419 212.728 C 231.4 212.469 232.337 212.187 233.228 211.879 C 233.763 211.776 234.171 211.879 234.452 212.187 C 234.732 212.496 234.987 212.804 235.217 213.113 C 235.446 213.421 235.682 213.601 235.924 213.653 C 236.166 213.704 236.453 213.472 236.783 212.958 C 237.293 212.958 237.383 213.216 237.052 213.73 C 236.721 214.244 236.479 214.604 236.326 214.811 C 237.168 214.707 237.811 214.888 238.257 215.351 C 238.703 215.813 239.525 216.097 240.723 216.2 C 241.004 216.714 241.01 217.1 240.743 217.358 C 240.475 217.614 240.266 218.051 240.114 218.668 C 242.942 219.596 244.517 221.061 244.836 223.068 C 245.157 225.074 244.693 227.157 243.446 229.318 C 242.199 231.479 240.429 233.486 238.137 235.337 C 235.844 237.19 233.552 238.424 231.258 239.041 C 226.036 240.38 221.061 241.845 216.335 243.441 C 211.609 245.035 207.489 247.375 203.974 250.463 C 201.35 251.183 198.949 252.135 196.771 253.318 C 194.593 254.501 192.479 255.839 190.428 257.331 C 188.378 258.822 186.417 260.366 184.545 261.961 C 182.673 263.555 180.731 265.124 178.719 266.669 C 178.465 268.109 177.963 269.215 177.212 269.986 C 176.46 270.758 175.728 271.555 175.016 272.379 C 174.837 273.922 174.857 275.285 175.075 276.469 C 175.293 277.652 175.567 278.81 175.899 279.941 C 182.119 281.999 188.962 283.285 196.428 283.8 C 203.895 284.315 211.438 284.623 219.057 284.726 C 219.516 285.755 220.123 286.707 220.875 287.581 C 221.628 288.455 222.29 289.382 222.865 290.359 C 223.438 291.337 223.834 292.417 224.051 293.601 C 224.269 294.783 224.009 296.25 223.271 297.999 C 221.462 299.542 219.533 300.957 217.482 302.244 C 215.432 303.53 213.375 304.841 211.312 306.179 Z M 334.697 303.092 C 333.552 303.606 332.494 304.069 331.526 304.482 C 330.558 304.893 329.513 305.099 328.392 305.099 C 325.154 302.115 324.373 296.918 326.05 289.51 C 327.727 282.102 331.608 272.688 337.689 261.266 C 338.276 260.958 338.683 260.34 338.912 259.414 L 337.917 257.871 C 337.509 257.871 337.114 257.923 336.731 258.026 C 336.35 258.129 335.981 258.488 335.624 259.105 C 332.491 261.06 329.084 263.093 325.403 265.202 C 321.723 267.311 317.952 269.266 314.093 271.067 C 310.233 272.868 306.406 274.334 302.61 275.465 C 298.814 276.598 295.234 277.163 291.869 277.163 C 283.308 277.163 277.967 272.79 275.845 264.045 L 275.193 261.729 L 273.475 263.735 C 273.068 264.148 272.399 264.997 271.47 266.282 C 270.54 267.568 269.567 269.034 268.549 270.682 C 267.53 272.327 266.582 273.999 265.705 275.697 C 264.826 277.395 264.285 278.861 264.083 280.096 C 262.937 281.022 261.702 282.102 260.377 283.337 C 259.053 284.571 257.945 285.96 257.055 287.504 C 256.648 288.328 256.559 289.098 256.789 289.818 C 256.355 290.745 255.72 291.466 254.879 291.98 C 254.344 292.494 253.79 292.982 253.217 293.446 C 252.644 293.909 252.141 294.397 251.708 294.912 C 251.377 295.426 251.122 295.941 250.944 296.456 C 250.767 296.97 250.563 297.485 250.333 297.999 C 250.156 298.719 249.889 299.388 249.533 300.006 C 246.91 303.606 244.956 305.947 243.67 307.028 C 242.383 308.108 240.874 308.648 239.142 308.648 C 238.326 308.648 237.038 308.495 235.28 308.185 C 234.311 306.744 233.603 304.764 233.156 302.244 C 232.708 299.723 232.559 297.021 232.71 294.141 C 232.861 291.259 233.324 288.352 234.1 285.421 C 234.874 282.488 235.989 279.941 237.439 277.78 C 237.464 277.677 238.126 276.649 239.425 274.694 C 240.723 272.739 242.39 270.218 244.427 267.131 C 246.463 264.045 248.761 260.623 251.32 256.868 C 253.878 253.112 256.412 249.46 258.918 245.909 C 261.427 242.36 263.788 239.093 266.003 236.109 C 268.218 233.125 270.025 230.862 271.427 229.318 C 272.546 228.084 273.571 226.926 274.5 225.846 C 275.43 224.765 276.328 223.711 277.194 222.681 C 279.816 219.492 282.229 216.843 284.432 214.734 C 286.635 212.625 289.519 210.952 293.087 209.717 C 295.1 210.643 296.464 211.724 297.178 212.958 L 297.065 214.655 C 297.218 215.686 297.703 216.2 298.519 216.2 C 299.563 216.508 300.436 216.791 301.138 217.049 C 301.838 217.306 302.622 217.537 303.488 217.743 C 303.999 218.565 304.42 219.544 304.752 220.675 C 305.262 221.91 305.754 223.119 306.226 224.302 C 306.698 225.486 307.017 226.669 307.184 227.852 C 307.35 229.035 307.306 230.244 307.052 231.479 C 306.798 232.714 306.251 234 305.412 235.337 L 305.184 236.881 C 305.464 237.807 305.248 239.093 304.536 240.739 C 304.256 241.459 304.021 242.205 303.831 242.977 C 303.639 243.749 303.531 244.598 303.507 245.524 C 304.986 246.964 306.439 247.684 307.865 247.684 C 309.497 247.684 311.095 247.299 312.662 246.526 C 314.229 245.755 315.726 244.958 317.152 244.134 C 318.12 243.517 319.068 242.977 319.999 242.514 C 320.929 242.051 321.814 241.769 322.655 241.665 C 324.922 239.916 326.959 238.373 328.768 237.035 C 330.576 235.697 332.461 234.36 334.422 233.022 C 338.09 230.553 341.707 227.878 345.272 224.997 C 348.838 222.116 352.021 218.514 354.821 214.193 C 355.992 213.576 357.14 213.267 358.261 213.267 C 359.382 213.267 360.491 213.524 361.586 214.038 C 362.683 214.553 363.728 215.068 364.722 215.583 C 364.977 215.789 365.219 215.942 365.449 216.045 C 365.678 216.148 365.881 216.251 366.061 216.354 C 365.807 217.382 365.998 218.257 366.635 218.977 C 366.967 219.286 367.171 219.492 367.247 219.596 C 367.324 219.699 367.451 219.801 367.63 219.904 C 368.956 220.727 369.721 221.55 369.925 222.373 C 370.054 224.74 370.884 226.54 372.413 227.775 C 371.955 228.804 371.746 229.756 371.785 230.63 C 371.824 231.505 371.933 232.405 372.111 233.331 C 372.137 233.639 372.162 233.949 372.188 234.257 C 372.214 234.566 372.278 234.925 372.38 235.337 L 369.551 235.028 L 369.286 237.962 C 369.133 239.402 368.612 240.997 367.722 242.745 C 366.831 244.496 365.953 245.884 365.087 246.913 C 364.528 249.588 364.09 251.672 363.773 253.164 C 363.455 254.655 363.036 256.045 362.514 257.331 C 361.993 258.617 361.414 259.826 360.777 260.958 C 360.14 262.09 359.352 263.324 358.41 264.662 C 357.191 271.247 354.972 277.241 351.751 282.642 C 348.532 288.044 345.317 293.111 342.11 297.844 C 341.779 298.359 341.423 298.873 341.041 299.388 C 340.658 299.903 340.302 300.417 339.972 300.931 C 338.978 301.24 338.08 301.574 337.277 301.935 C 336.475 302.295 335.615 302.681 334.697 303.092 Z M 462.5 218.977 C 462.424 219.699 462.316 220.237 462.176 220.598 C 462.037 220.958 461.903 221.292 461.776 221.602 C 461.648 221.91 461.54 222.244 461.451 222.605 C 461.363 222.965 461.33 223.505 461.357 224.226 C 458.352 227.724 455.289 230.116 452.168 231.402 C 449.048 232.688 445.786 233.614 442.386 234.18 C 438.984 234.746 435.5 235.337 431.931 235.955 C 428.365 236.573 424.645 237.91 420.774 239.968 C 419.575 239.453 418.377 239.453 417.181 239.968 C 415.983 240.483 414.39 240.637 412.403 240.431 C 411.639 241.048 410.766 241.485 409.786 241.742 C 408.804 241.999 407.817 242.283 406.823 242.592 C 407.002 243.517 406.946 244.469 406.653 245.447 C 406.36 246.423 406.291 247.222 406.444 247.839 C 409.936 248.147 413.899 248.096 418.332 247.684 C 422.765 247.273 427.085 247.016 431.29 246.913 C 431.265 247.427 431.131 247.762 430.889 247.916 C 430.647 248.071 430.526 248.353 430.526 248.764 C 431.112 249.279 431.668 249.922 432.19 250.694 C 432.713 251.466 433.242 252.212 433.779 252.932 C 434.314 253.653 434.906 254.243 435.557 254.707 C 436.207 255.171 437.054 255.35 438.099 255.247 C 438.303 256.07 438.361 256.971 438.272 257.948 C 438.184 258.925 437.808 259.929 437.147 260.958 C 435.237 262.09 433.32 263.247 431.397 264.431 C 429.473 265.614 427.506 266.669 425.493 267.594 C 423.481 268.52 421.411 269.266 419.283 269.832 C 417.155 270.398 414.882 270.63 412.461 270.527 C 411.951 270.527 411.569 270.527 411.314 270.527 C 411.06 270.527 410.766 270.373 410.434 270.064 C 409.491 270.579 408.307 270.733 406.879 270.527 C 405.453 270.321 404.268 270.476 403.326 270.99 C 402.331 270.476 401.038 270.244 399.445 270.295 C 397.852 270.347 396.495 270.167 395.374 269.754 C 393.209 271.916 391.16 274.23 389.224 276.7 C 387.289 279.17 385.47 281.793 383.764 284.571 C 387.102 285.086 389.93 285.291 392.25 285.188 C 394.569 285.086 396.779 284.906 398.882 284.648 C 400.984 284.391 403.137 284.134 405.341 283.877 C 407.545 283.619 410.265 283.543 413.502 283.646 C 415.82 282.514 418.425 281.768 421.317 281.408 C 424.209 281.048 426.929 280.456 429.477 279.633 C 430.216 279.941 430.796 280.481 431.217 281.254 C 431.637 282.025 432.045 282.745 432.441 283.414 C 432.837 284.083 433.276 284.674 433.762 285.188 C 434.245 285.703 434.96 285.908 435.903 285.806 C 436.209 286.218 436.368 286.707 436.381 287.273 C 436.394 287.838 436.388 288.379 436.363 288.893 C 436.338 289.407 436.408 289.845 436.574 290.205 C 436.74 290.565 437.142 290.693 437.779 290.59 C 435.411 293.986 433.01 296.584 430.579 298.385 C 428.146 300.185 425.541 301.548 422.764 302.475 C 419.987 303.401 416.981 304.121 413.744 304.636 C 410.509 305.15 406.917 305.767 402.967 306.488 C 401.999 306.693 401.241 306.668 400.692 306.41 C 400.144 306.154 399.462 306.025 398.647 306.025 C 396.175 306.539 393.258 307.002 389.895 307.413 C 386.531 307.825 383.181 307.979 379.843 307.876 C 376.504 307.773 373.4 307.337 370.533 306.565 C 367.667 305.792 365.506 304.43 364.052 302.475 C 363.414 301.754 363.089 300.905 363.076 299.928 C 363.063 298.951 362.559 298.205 361.564 297.69 C 361.793 296.353 361.958 294.861 362.058 293.214 C 362.159 291.569 362.279 289.845 362.418 288.044 C 362.557 286.243 362.766 284.469 363.045 282.719 C 363.325 280.97 363.795 279.375 364.456 277.935 C 365.143 276.392 366.123 275.003 367.397 273.767 C 368.67 272.533 369.332 271.196 369.382 269.754 C 369.916 269.651 370.293 269.369 370.509 268.907 C 370.725 268.443 371.177 268.263 371.865 268.366 C 372.935 266.514 374.029 264.765 375.149 263.118 C 376.269 261.472 377.402 259.877 378.548 258.334 C 379.693 256.79 380.846 255.222 382.003 253.626 C 383.163 252.032 384.339 250.257 385.536 248.302 C 384.439 246.964 383.757 245.498 383.488 243.903 C 383.22 242.308 383.13 240.714 383.217 239.119 C 383.306 237.524 383.458 235.877 383.674 234.18 C 383.889 232.482 383.957 230.759 383.879 229.009 C 385.28 227.466 386.841 226.206 388.559 225.228 C 390.279 224.25 392.082 223.454 393.967 222.836 C 395.852 222.219 397.864 221.705 400.005 221.292 C 402.146 220.881 404.4 220.418 406.77 219.904 C 411.178 218.565 415.075 217.537 418.464 216.817 C 421.853 216.097 425.16 215.505 428.383 215.042 C 431.606 214.579 434.951 214.141 438.415 213.73 C 441.881 213.318 445.855 212.701 450.34 211.879 C 451.028 212.804 451.781 213.267 452.597 213.267 C 453.232 212.341 453.787 212.058 454.258 212.417 C 454.73 212.779 455.029 212.496 455.156 211.57 C 455.743 213.318 456.68 214.785 457.969 215.968 C 459.256 217.152 460.766 218.154 462.5 218.977 Z M 250 0 C 111.929 0 0 111.929 0 250 C 0 388.071 111.929 500 250 500 C 388.071 500 500 388.071 500 250 C 500 111.929 388.071 0 250 0 Z" style="white-space: pre; fill: rgb(255, 255, 255);"/>
</svg>